# Skybox (inward-facing normals)
mtllib Grass_Block.mtl
g
v 1 3e-06 -1
v 1 3e-06 1
v -1 3e-06 1
v -1 3e-06 -1
v 1 2 -0.999999
v -1 2 -1
v -1 2 1
v 0.999999 2 1
vn 0 1 0
vn 0 -1 0
vn -1 0 0
vn 0 0 -1
vn 1 0 0
vn 0 0 1
vt 0.666657 0.250023
vt 0.333343 0.250023
vt 0.333343 3.80278e-05
vt 0.666657 3.80278e-05
vt 0.666657 0.500009
vt 0.666657 0.749994
vt 0.333343 0.749994
vt 0.333343 0.500009
vt 2.9e-05 0.500009
vt 2.9e-05 0.749994
vt 0.333343 0.99998
vt 0.666657 0.99998
vt 0.999971 0.500009
vt 0.999971 0.749994
usemtl Skybox_TEX
f 1/1/1 4/4/1 3/3/1 2/2/1
f 5/5/2 8/8/2 7/7/2 6/6/2
f 1/1/3 2/2/3 8/8/3 5/5/3
f 2/9/4 3/10/4 7/7/4 8/8/4
f 3/11/5 4/12/5 6/6/5 7/7/5
f 5/5/6 6/6/6 4/14/6 1/13/6
s off
